<svg width="250" height="64" xmlns="http://www.w3.org/2000/svg" xml:space="preserve" version="1.1">

 <g>
  <title>Layer 1</title>
  <g id="Layer_1">
   <g id="svg_1">
    <circle id="svg_2" fill="#77B3D4" r="32" cy="32" cx="32" class="st0"/>
   </g>
   <g id="svg_3" opacity="0.2" class="st1">
    <path id="svg_4" fill="#231F20" d="m32,12c-12.1,0 -22,9.9 -22,22s9.9,22 22,22c3.5,0 7,-0.8 10.1,-2.4c1,-0.5 1.4,-1.7 0.9,-2.7s-1.7,-1.4 -2.7,-0.9c-2.6,1.3 -5.3,2 -8.2,2c-9.9,0 -18,-8.1 -18,-18s8.1,-18 18,-18s18,8.1 18,18c0,3 -0.8,6 -2.2,8.6c-1.8,-1.4 -4.4,-4.2 -4.4,-8.5l0,-8.8c0,-1.1 -0.9,-2 -2,-2s-2,0.9 -2,2l0,0.1c-2,-1.7 -4.6,-2.8 -7.4,-2.8c-6.3,0 -11.4,5.1 -11.4,11.4s5,11.4 11.3,11.4c3.7,0 7,-1.8 9.1,-4.6c2.3,4.2 6.2,6.3 6.4,6.4c0.9,0.5 2,0.2 2.6,-0.6c2.6,-3.7 3.9,-8 3.9,-12.6c0,-12.1 -9.9,-22 -22,-22zm0,29.4c-4.1,0 -7.4,-3.3 -7.4,-7.4c0,-4.1 3.3,-7.4 7.4,-7.4s7.4,3.3 7.4,7.4c0,4.1 -3.3,7.4 -7.4,7.4z" class="st2"/>
   </g>
   <g id="svg_5">
    <path id="svg_6" fill="#FFFFFF" d="m32,54c-12.1,0 -22,-9.9 -22,-22s9.9,-22 22,-22s22,9.9 22,22c0,4.5 -1.4,8.9 -3.9,12.6c-0.6,0.8 -1.7,1.1 -2.6,0.6c-0.3,-0.2 -8.1,-4.2 -8.1,-13.1l0,-8.8c0,-1.1 0.9,-2 2,-2c1.1,0 2,0.9 2,2l0,8.8c0,4.3 2.6,7.1 4.4,8.5c1.4,-2.6 2.2,-5.6 2.2,-8.6c0,-9.9 -8.1,-18 -18,-18s-18,8.1 -18,18s8.1,18 18,18c2.9,0 5.7,-0.7 8.2,-2c1,-0.5 2.2,-0.1 2.7,0.9c0.5,1 0.1,2.2 -0.9,2.7c-3,1.6 -6.5,2.4 -10,2.4z" class="st3"/>
   </g>
   <g id="svg_7">
    <path id="svg_8" fill="#FFFFFF" d="m32,24.6c4.1,0 7.4,3.3 7.4,7.4s-3.3,7.4 -7.4,7.4s-7.4,-3.3 -7.4,-7.4s3.3,-7.4 7.4,-7.4m0,-4c-6.3,0 -11.4,5.1 -11.4,11.4s5.1,11.4 11.4,11.4s11.4,-5.1 11.4,-11.4s-5.1,-11.4 -11.4,-11.4l0,0z" class="st3"/>
   </g>
  </g>
  <g id="Layer_2"/>
  <text stroke-dasharray="5,5" font-weight="normal" xml:space="preserve" text-anchor="start" font-family="'El Messiri'" font-size="24" id="svg_9" y="38.79998" x="68.99999" stroke-width="0" stroke="#000" fill="#000000">Signature World</text>
 </g>
</svg>